<?xml version="1.0" encoding="UTF-8"?>
<!DOCTYPE svg PUBLIC "-//W3C//DTD SVG 1.1//EN" "http://www.w3.org/Graphics/SVG/1.1/DTD/svg11.dtd">
<!-- Creator: CorelDRAW X7 -->
<svg xmlns="http://www.w3.org/2000/svg" xml:space="preserve" width="105.453mm" height="35.2818mm" version="1.1" style="shape-rendering:geometricPrecision; text-rendering:geometricPrecision; image-rendering:optimizeQuality; fill-rule:evenodd; clip-rule:evenodd"
viewBox="0 0 10545 3528"
 xmlns:xlink="http://www.w3.org/1999/xlink">
 <defs>
  <style type="text/css">
   <![CDATA[
    .fil3 {fill:#2B2A29}
    .fil0 {fill:#F9B101}
    .fil2 {fill:#FEFEFE;fill-rule:nonzero}
    .fil1 {fill:#2B2A29;fill-rule:nonzero}
   ]]>
  </style>
 </defs>
 <g id="Слой_x0020_1">
  <metadata id="CorelCorpID_0Corel-Layer"/>
  <g id="_772426888912">
   <path class="fil0" d="M8900 2350c-67,25 -138,39 -209,39l-7666 0 -25 0 5 -25 211 -953c15,-69 44,-136 83,-196 41,-63 92,-119 151,-166 59,-47 125,-86 195,-112 68,-25 138,-39 209,-39l7666 0 26 0 -6 25 -211 953c-15,70 -44,136 -83,196 -40,63 -92,119 -151,166 -59,47 -125,86 -195,112z"/>
   <path class="fil1" d="M9660 792l-7773 0 -32 0c-86,0 -173,17 -255,47 -86,32 -167,79 -240,137 -72,59 -136,128 -185,205 -48,74 -83,154 -102,239l-227 1026 -11 49 7 0 43 0 32 0 7741 0 32 0c87,0 173,-17 255,-47 86,-32 168,-79 240,-137 73,-58 136,-128 186,-205 47,-73 83,-154 101,-239l227 -1026 11 -49 -6 0 -44 0zm-1290 1243l147 0 169 -783 -148 0 -168 783zm-4697 -783l469 0 -26 122 -469 0 -33 155 366 0c24,0 45,4 64,11 20,6 36,16 48,27 13,13 22,28 27,46 5,18 8,37 8,57 0,20 -1,39 -4,59 -3,20 -6,38 -9,53 -4,17 -8,34 -13,53 -5,18 -12,37 -20,56 -8,18 -18,36 -29,53 -12,17 -25,31 -42,44 -14,12 -29,21 -44,27 -15,7 -30,11 -44,14 -15,3 -29,5 -42,5 -13,1 -25,1 -35,1l-373 0c-13,0 -27,-2 -43,-6 -16,-3 -28,-12 -38,-24 -11,-14 -16,-28 -15,-43 1,-15 3,-30 7,-44l116 -544 1 -4 1 -1 0 -1c3,-14 7,-29 12,-43 6,-15 17,-29 33,-43 15,-12 32,-21 49,-24 14,-3 26,-5 37,-6l0 0 41 0zm-1388 176c2,-5 6,-10 11,-17 5,-6 9,-9 13,-9 2,0 5,1 8,4 2,2 3,9 1,19l-136 610 147 0 149 -689c7,-36 1,-62 -19,-78 -21,-17 -49,-25 -85,-25 -15,0 -28,1 -41,4 -14,2 -27,6 -40,13 -14,8 -27,18 -40,31 -13,13 -26,30 -39,53l-315 522c-5,8 -10,15 -15,21 -4,5 -8,8 -12,8 -4,0 -7,-3 -9,-8 -2,-6 -4,-13 -6,-21l-90 -522c-2,-14 -6,-26 -10,-39 -4,-12 -10,-23 -18,-32 -8,-10 -19,-17 -33,-22 -14,-5 -33,-8 -55,-8 -6,0 -16,1 -30,2 -14,1 -29,5 -44,12 -16,6 -31,17 -45,30 -14,14 -24,34 -29,59l-149 689 148 0 128 -610c0,-1 2,-5 4,-12 3,-7 7,-11 13,-11 4,0 7,3 9,9 3,7 4,12 5,17l87 522c2,13 4,25 7,36 3,11 8,21 14,29 6,9 15,16 26,21 11,5 26,8 45,8 17,0 32,-2 45,-6 13,-4 24,-10 34,-19 10,-8 19,-18 27,-29 8,-12 17,-25 26,-40l313 -522zm393 216c13,-61 27,-108 43,-141 15,-33 33,-59 52,-79 29,-28 62,-46 99,-53 36,-7 75,-10 116,-10 40,0 77,3 112,10 34,7 60,25 77,53 4,8 8,17 12,28 3,11 5,26 6,43 1,17 0,38 -3,62 -2,24 -7,53 -14,87 -7,31 -14,58 -22,82 -8,24 -16,45 -24,62 -8,17 -16,31 -25,43 -8,12 -16,22 -24,31 -16,15 -32,26 -48,35 -17,8 -35,15 -53,19 -19,5 -38,8 -57,9 -19,1 -39,1 -59,1 -20,0 -40,0 -59,-1 -19,-1 -37,-4 -53,-9 -16,-4 -31,-11 -44,-19 -13,-9 -23,-20 -31,-35 -5,-9 -9,-18 -12,-30 -3,-12 -5,-26 -6,-44 -1,-17 0,-38 3,-61 2,-24 7,-51 14,-83zm336 -401c-24,0 -49,1 -77,1 -27,1 -55,4 -84,9 -28,5 -57,14 -86,25 -29,11 -56,27 -82,48 -26,20 -48,43 -66,69 -17,25 -32,52 -44,80 -12,28 -22,57 -29,85 -8,29 -15,57 -20,84 -5,22 -10,47 -15,74 -5,28 -7,56 -8,85 -1,29 2,57 9,84 6,28 18,53 36,74 17,21 38,37 62,48 24,11 49,20 76,25 27,5 54,8 81,9 27,1 52,1 75,1 22,0 47,0 75,-1 28,-1 56,-4 85,-9 30,-5 58,-14 87,-25 29,-11 57,-27 83,-48 24,-19 45,-42 63,-68 17,-26 32,-53 44,-82 12,-28 22,-57 30,-85 8,-29 15,-56 21,-82 5,-26 10,-53 15,-82 5,-29 7,-58 7,-86 0,-29 -4,-56 -10,-82 -6,-26 -18,-49 -33,-68 -18,-21 -38,-37 -62,-48 -24,-11 -50,-20 -77,-25 -26,-5 -53,-8 -80,-9 -27,0 -53,-1 -76,-1zm574 404l-48 224c-1,6 -2,13 -3,19 0,6 1,12 5,17 5,6 10,10 16,10 6,0 12,1 17,1l238 0c13,0 28,-2 47,-4 18,-3 35,-11 51,-23 15,-13 26,-30 34,-51 7,-21 13,-40 17,-57 1,-7 3,-16 5,-25 1,-10 2,-20 3,-29 0,-10 -1,-20 -2,-29 -2,-9 -4,-17 -9,-24 -9,-15 -23,-24 -40,-26 -17,-2 -34,-3 -50,-3l-281 0zm1333 388l-143 0 124 -577c0,-3 1,-7 1,-12 0,-5 -3,-7 -9,-7 -6,0 -10,2 -13,7 -2,4 -6,8 -9,12l-445 524c-15,18 -32,32 -53,44 -22,12 -50,18 -85,18 -37,0 -64,-9 -82,-28 -17,-19 -22,-45 -15,-78l148 -686 143 0 -124 575c-1,8 -1,14 2,17 3,4 6,5 9,5 2,0 4,-1 6,-3 3,-2 8,-8 16,-16l442 -521c23,-27 47,-45 70,-54 23,-8 47,-12 71,-12 32,0 57,9 76,26 20,17 25,45 16,85l-146 681zm33 0l156 0 409 -658 90 460 38 198 155 0 -144 -703c-7,-33 -19,-56 -35,-69 -16,-13 -41,-20 -74,-20 -36,0 -64,7 -85,20 -21,13 -42,36 -63,69l-447 703zm1113 -388l-48 224c-2,6 -3,13 -4,19 0,6 2,12 6,17 4,6 10,10 15,10 6,0 12,1 17,1l238 0c13,0 29,-2 47,-4 19,-3 35,-11 51,-23 15,-13 27,-30 34,-51 8,-21 13,-40 17,-57 2,-7 3,-16 5,-25 2,-10 3,-20 3,-29 0,-10 -1,-20 -2,-29 -1,-9 -4,-17 -9,-24 -9,-15 -22,-24 -39,-26 -18,-2 -34,-3 -51,-3l-280 0zm85 -395l-60 277 367 0c23,0 44,4 64,11 19,6 35,16 47,27 13,13 22,28 27,46 5,18 8,37 8,57 0,20 -1,39 -4,59 -2,20 -5,38 -9,53 -3,17 -8,34 -13,53 -5,18 -12,37 -20,56 -8,18 -18,36 -29,53 -11,17 -25,31 -41,44 -15,12 -30,21 -45,27 -15,7 -30,11 -44,14 -15,3 -28,5 -42,5 -13,1 -24,1 -35,1l-372 0c-14,0 -28,-2 -44,-6 -15,-3 -28,-12 -38,-24 -11,-14 -15,-28 -14,-43 1,-15 3,-30 6,-44l143 -666 148 0zm1368 0l-147 0 -69 321 -407 0 69 -321 -148 0 -168 783 147 0 74 -344 408 0 -75 344 148 0 168 -783zm715 783l-143 0 125 -577c0,-3 0,-7 0,-12 0,-5 -3,-7 -9,-7 -5,0 -9,2 -12,7 -3,4 -6,8 -10,12l-445 524c-14,18 -31,32 -53,44 -21,12 -49,18 -84,18 -37,0 -65,-9 -82,-28 -17,-19 -22,-45 -15,-78l148 -686 143 0 -124 575c-2,8 -1,14 2,17 3,4 6,5 9,5 1,0 4,-1 6,-3 3,-2 8,-8 16,-16l442 -521c23,-27 46,-45 70,-54 23,-8 47,-12 71,-12 32,0 57,9 76,26 19,17 25,45 16,85l-147 681zm884 0l-299 -330c-9,-10 -17,-20 -24,-31 -8,-11 -10,-26 -6,-43 3,-13 9,-24 19,-33 9,-8 20,-17 30,-25l407 -321 -182 0 -360 293c-12,11 -24,24 -35,40 -11,17 -18,32 -21,47 -3,14 -3,30 -1,48 3,18 12,36 28,54l257 301 187 0zm-219 315c-67,25 -138,39 -209,39l-7666 0 -25 0 5 -25 211 -953c15,-69 44,-136 83,-196 41,-63 92,-119 151,-166 59,-47 125,-86 195,-112 68,-25 138,-39 209,-39l7666 0 26 0 -6 25 -211 953c-15,70 -44,136 -83,196 -40,63 -92,119 -151,166 -59,47 -125,86 -195,112z"/>
   <path class="fil2" d="M7836 2692c25,-5 51,-12 76,-21 116,-44 188,-105 237,-181 49,-77 76,-171 100,-279l-5778 0c-25,0 -50,2 -75,7l0 0c-26,5 -51,12 -76,21 -116,43 -189,104 -238,181 -49,77 -76,171 -100,279l5778 0c26,0 51,-3 76,-7z"/>
   <path class="fil1" d="M7925 2706c-27,10 -55,17 -83,23 -27,5 -55,7 -82,7l-5782 0 -19 0 -23 0 5 -22 4 -19c25,-114 53,-212 106,-295 53,-84 131,-150 256,-196 27,-10 54,-18 82,-23l0 0c27,-5 55,-8 82,-8l5782 0 19 0 24 0 -5 23 -5 19c-25,113 -53,212 -106,295 -53,83 -131,149 -255,196zm-89 -14c25,-5 51,-12 76,-21 116,-44 188,-105 237,-181 49,-77 76,-171 100,-279l-5778 0c-25,0 -50,2 -75,7l0 0c-26,5 -51,12 -76,21 -116,43 -189,104 -238,181 -49,77 -76,171 -100,279l5778 0c26,0 51,-3 76,-7z"/>
   <path class="fil3" d="M2398 2400l-52 0 0 147 -40 0 0 -147 -51 0 0 -33 143 0 0 33zm427 43l88 0c-1,-11 -5,-21 -10,-28 -8,-11 -19,-16 -33,-16 -14,0 -25,5 -34,16 -6,8 -10,17 -11,28zm89 27l-89 0c1,12 5,22 11,29 9,11 20,16 33,16 14,0 25,-5 33,-15 6,-8 10,-18 12,-30zm-469 -27l88 0c-1,-11 -5,-21 -11,-28 -7,-11 -18,-16 -32,-16 -14,0 -25,5 -34,16 -6,8 -10,17 -11,28zm89 27l-90 0c2,12 6,22 12,29 9,11 19,16 33,16 14,0 25,-5 33,-15 6,-8 10,-18 12,-30zm5442 77l-44 0 -12 -40 -64 0 -13 40 -44 0 66 -180 48 0 63 180zm-66 -71l-19 -60c-1,-5 -2,-10 -3,-17l-1 0c0,6 -1,11 -3,16l-20 61 46 0zm-132 71l-40 0 0 -108c0,-11 1,-24 2,-38l-1 0c-3,11 -4,19 -6,24l-42 122 -33 0 -43 -121c-1,-3 -3,-12 -5,-25l-2 0c1,18 2,33 2,47l0 99 -36 0 0 -180 59 0 36 107c3,8 5,17 7,25l1 0c2,-10 4,-18 7,-26l36 -106 58 0 0 180zm-233 0l-108 0 0 -180 104 0 0 33 -63 0 0 40 58 0 0 33 -58 0 0 41 67 0 0 33zm-132 -147l-51 0 0 147 -40 0 0 -147 -51 0 0 -33 142 0 0 33zm-157 140c-13,7 -30,10 -51,10 -28,0 -49,-8 -65,-24 -16,-17 -24,-38 -24,-65 0,-29 9,-52 27,-70 18,-18 41,-27 69,-27 17,0 32,3 44,7l0 39c-12,-7 -26,-11 -41,-11 -17,0 -30,5 -41,16 -10,11 -15,25 -15,43 0,17 5,31 14,41 10,11 23,16 40,16 16,0 30,-4 43,-12l0 37zm-170 7l-38 0 0 -99c0,-11 1,-21 2,-29l-1 0c-2,4 -5,9 -9,15l-74 113 -41 0 0 -180 38 0 0 100c0,12 0,20 -1,24l1 0c0,-1 3,-6 9,-14l71 -110 43 0 0 180zm-192 -7c-13,7 -30,10 -51,10 -28,0 -49,-8 -65,-24 -16,-17 -24,-38 -24,-65 0,-29 9,-52 27,-70 17,-18 40,-27 69,-27 17,0 32,3 44,7l0 39c-12,-7 -26,-11 -41,-11 -17,0 -30,5 -41,16 -10,11 -15,25 -15,43 0,17 5,31 14,41 10,11 23,16 40,16 15,0 30,-4 43,-12l0 37zm-240 7l-41 0 0 -70 -10 0c-10,0 -19,8 -25,23l-19 47 -47 0 25 -54c7,-15 16,-24 28,-28l0 0c-27,-7 -40,-22 -40,-46 0,-16 6,-29 18,-38 11,-9 28,-14 49,-14l62 0 0 180zm-41 -100l0 -49 -17 0c-19,0 -28,8 -28,24 0,7 3,13 8,18 5,4 12,7 20,7l17 0zm-104 100l-44 0 -13 -40 -64 0 -13 40 -43 0 65 -180 48 0 64 180zm-66 -71l-20 -60c-1,-5 -2,-10 -3,-17l-1 0c0,6 -1,11 -3,16l-19 61 46 0zm-133 71l-41 0 0 -73 -74 0 0 73 -40 0 0 -180 40 0 0 72 74 0 0 -72 41 0 0 180zm-175 0l-50 0 -53 -78c-1,-2 -3,-5 -5,-9l0 0 0 87 -40 0 0 -87 0 0c-1,2 -3,5 -5,9l-53 78 -50 0 68 -94 -63 -86 48 0 50 75c2,4 4,6 5,9l0 0 0 -84 40 0 0 84 0 0c2,-3 3,-5 5,-9l50 -75 48 0 -63 86 68 94zm-265 0l-108 0 0 -180 104 0 0 33 -63 0 0 40 58 0 0 33 -58 0 0 41 67 0 0 33zm-132 -147l-51 0 0 147 -40 0 0 -147 -51 0 0 -33 142 0 0 33zm-133 147l-44 0 -13 -40 -64 0 -13 40 -43 0 65 -180 48 0 64 180zm-66 -71l-20 -60c-1,-5 -2,-10 -3,-17l-1 0c0,6 -1,11 -3,16l-19 61 46 0zm-133 71l-41 0 0 -146 -35 0c-10,69 -19,111 -27,126 -9,15 -22,22 -39,22 -7,0 -14,-1 -22,-3l0 -33c5,2 9,3 13,3 3,0 6,-1 9,-3 3,-3 5,-8 9,-18 3,-9 7,-25 11,-48 5,-23 9,-49 13,-80l109 0 0 180zm-187 0l-40 0 0 -144 -75 0 0 144 -40 0 0 -180 155 0 0 180zm-337 0l-40 0 0 -180 40 0 0 180zm-189 0l0 -180 40 0 0 68 27 0c43,0 64,17 64,52 0,19 -5,34 -17,44 -12,10 -28,16 -49,16l-65 0zm40 -82l0 51 18 0c21,0 31,-9 31,-26 0,-17 -10,-25 -30,-25l-19 0zm-71 75c-14,7 -31,10 -52,10 -27,0 -49,-8 -65,-24 -15,-17 -23,-38 -23,-65 0,-29 9,-52 26,-70 18,-18 41,-27 69,-27 18,0 33,3 45,7l0 39c-12,-7 -26,-11 -41,-11 -17,0 -31,5 -41,16 -11,11 -16,25 -16,43 0,17 5,31 15,41 10,11 23,16 39,16 16,0 30,-4 44,-12l0 37zm-149 7l-44 0 -13 -40 -63 0 -13 40 -44 0 66 -180 47 0 64 180zm-66 -71l-19 -60c-1,-5 -3,-10 -3,-17l-1 0c-1,6 -2,11 -3,16l-20 61 46 0zm-132 71l-40 0 0 -108c0,-11 0,-24 1,-38l-1 0c-2,11 -4,19 -5,24l-42 122 -33 0 -43 -121c-1,-3 -3,-12 -6,-25l-1 0c1,18 2,33 2,47l0 99 -37 0 0 -180 60 0 36 107c3,8 5,17 7,25l0 0c3,-10 5,-18 8,-26l36 -106 58 0 0 180zm-233 0l-108 0 0 -180 104 0 0 33 -63 0 0 40 58 0 0 33 -58 0 0 41 67 0 0 33zm-132 -147l-51 0 0 147 -41 0 0 -147 -50 0 0 -33 142 0 0 33zm-157 140c-13,7 -30,10 -51,10 -28,0 -49,-8 -65,-24 -16,-17 -24,-38 -24,-65 0,-29 9,-52 27,-70 17,-18 40,-27 69,-27 17,0 32,3 44,7l0 39c-12,-7 -26,-11 -41,-11 -17,0 -30,5 -41,16 -10,11 -15,25 -15,43 0,17 5,31 14,41 10,11 23,16 40,16 15,0 30,-4 43,-12l0 37zm-170 7l-38 0 0 -99c0,-11 1,-21 1,-29l0 0c-2,4 -5,9 -9,15l-74 113 -41 0 0 -180 38 0 0 100c0,12 0,20 -1,24l1 0c0,-1 3,-6 9,-14l71 -110 43 0 0 180zm-192 -7c-13,7 -30,10 -51,10 -28,0 -50,-8 -65,-24 -16,-17 -24,-38 -24,-65 0,-29 9,-52 27,-70 17,-18 40,-27 69,-27 17,0 32,3 44,7l0 39c-12,-7 -26,-11 -41,-11 -17,0 -31,5 -41,16 -10,11 -15,25 -15,43 0,17 4,31 14,41 10,11 23,16 40,16 15,0 30,-4 43,-12l0 37zm-240 7l-40 0 0 -108c0,-11 1,-24 2,-38l-1 0c-3,11 -4,19 -6,24l-42 122 -33 0 -43 -121c-1,-3 -3,-12 -5,-25l-2 0c1,18 2,33 2,47l0 99 -36 0 0 -180 59 0 36 107c3,8 5,17 7,25l1 0c2,-10 4,-18 7,-26l36 -106 58 0 0 180zm-323 3c-25,0 -46,-9 -62,-25 -17,-17 -25,-39 -25,-66 0,-28 8,-51 25,-68 16,-18 38,-27 65,-27 26,0 46,9 62,26 16,16 24,38 24,66 0,28 -8,51 -25,68 -16,17 -37,26 -64,26zm-117 -3l-40 0 0 -146 -36 0c-9,69 -18,111 -27,126 -8,15 -21,22 -38,22 -8,0 -15,-1 -22,-3l0 -33c5,2 9,3 12,3 4,0 7,-1 10,-3 2,-3 5,-8 8,-18 3,-9 7,-25 12,-48 4,-23 8,-49 12,-80l109 0 0 180zm-263 3c-25,0 -46,-9 -63,-25 -16,-17 -24,-39 -24,-66 0,-28 8,-51 25,-68 16,-18 38,-27 65,-27 26,0 46,9 62,26 16,16 24,38 24,66 0,28 -8,51 -25,68 -16,17 -37,26 -64,26z"/>
   <path class="fil3" d="M4975 2429c18,0 33,15 33,33 0,18 -15,33 -33,33 -18,0 -33,-15 -33,-33 0,-18 15,-33 33,-33z"/>
  </g>
 </g>
</svg>
