<?xml version="1.0" encoding="iso-8859-1"?>
<!-- Generator: Adobe Illustrator 16.0.0, SVG Export Plug-In . SVG Version: 6.00 Build 0)  -->
<!DOCTYPE svg PUBLIC "-//W3C//DTD SVG 1.1//EN" "http://www.w3.org/Graphics/SVG/1.1/DTD/svg11.dtd">
<svg version="1.1" id="Layer_1" xmlns="http://www.w3.org/2000/svg" xmlns:xlink="http://www.w3.org/1999/xlink" x="0px" y="0px"
	 width="20.466px" height="22.969px" viewBox="0 0 20.466 22.969" style="enable-background:new 0 0 20.466 22.969;"
	 xml:space="preserve">
<path style="fill:#E5A3BB;" d="M14.632,16.525c-0.003-0.002-0.006-0.002-0.009-0.004c-0.006,0-0.011-0.004-0.013-0.004
	c-0.009-0.005-0.014-0.006-0.02-0.006c-0.005,0-0.01,0-0.011-0.002c-0.01-0.004-0.02-0.005-0.03-0.009
	c-0.128-0.023-0.253-0.005-0.362,0.064c-0.237,0.166-0.274,0.534-0.08,0.829c0.093,0.133,0.215,0.226,0.35,0.274
	c0,0,0.001,0,0.008,0.006c0,0,0.009,0.003,0.013,0.003c0.006,0.001,0.012,0.001,0.018,0.004c0.004,0,0.006,0.003,0.01,0.004
	c0.011,0.002,0.02,0.007,0.031,0.007c0.127,0.021,0.255,0.004,0.361-0.063c0.239-0.166,0.278-0.531,0.079-0.828
	C14.889,16.669,14.765,16.573,14.632,16.525 M20.308,22.322c-0.583-1.192-1.617-2.071-2.74-2.741c-0.388-0.235-0.825-0.4-1.21-0.524
	c-0.878-0.285-1.731-0.354-2.724-0.523c-0.807-0.14-1.443-0.473-2.127-0.941c-0.357-0.243-0.648-0.579-0.892-0.936
	c-0.044-0.071-0.271-0.35-0.25-0.446c0,0-0.155,0.639,0.157,1.536c-2.889-0.132-5.42-1.74-6.579-3.694
	c-2.136-3.589-1.385-7.942,1.462-9.866c2.846-1.922,7.183-0.566,9.507,2.905c1.457,2.178,1.831,4.714,1.204,6.774
	c-0.003,0.014-0.009,0.029-0.015,0.045c-1.233-0.9-2.36-0.44-2.36-0.44c1.236-0.127,2.213,0.861,2.213,0.861
	c0.145,0.126,0.282,0.271,0.409,0.427c0.027,0.041,0.055,0.079,0.083,0.12c0.325,0.443,0.526,0.935,0.612,1.431
	c2.458-3.132,2.861-7.469,0.691-10.838c-2.772-4.294-8.67-5.389-13.18-2.451c-4.508,2.94-5.921,8.8-3.153,13.094
	c2.276,3.531,7.609,4.607,10.671,3.635c1.155-0.364,5.116-0.715,7.87,2.561c0,0,0.24,0.273,0.369,0.586c0,0,0.038,0.109,0.14,0.057
	C20.494,22.939,20.571,22.85,20.308,22.322 M16.231,15.847c0.206,0.081,0.327,0.413,0.361,0.573c0.079,0.364-0.045,0.517-0.153,0.45
	c-0.111-0.056-0.262-0.336-0.377-0.701C16.014,16.011,16.03,15.771,16.231,15.847"/>
</svg>
