<svg  xmlns="http://www.w3.org/2000/svg" width="12.68" height="12.688" viewBox="0 0 12.68 12.688"><g class="basket" fill="#FFC500"><path d="M.8 5.604l1.6 6.094 1.02.96h5.79l1.04-.96 1.63-6.094H.8zm3.16 1.548V7.15a.785.785 0 1 1-.79.786.794.794 0 0 1 .79-.784zm.022 3.978a.787.787 0 0 1 .003-1.57h.004v-.002a.785.785 0 1 1-.008 1.572zM6.32 7.103V7.1a.792.792 0 1 1-.8.793.8.8 0 0 1 .8-.79zm.03 3.98a.8.8 0 0 1 0-1.598.8.8 0 1 1 0 1.6zm2.314.01a.817.817 0 0 1-.814-.817.823.823 0 0 1 .82-.814V9.46c.45 0 .815.367.813.818a.815.815 0 0 1-.82.815zm.04-2.36a.79.79 0 0 1-.784-.79.8.8 0 0 1 .8-.79V7.15a.793.793 0 0 1-.017 1.584zM12.68 4.793V3.22H7.17L4.96.007l-1.4.8 1.665 2.415H0v1.573z"/></g></svg>