<svg xmlns="http://www.w3.org/2000/svg" viewBox="0 0 131.47 56.06"><defs><style>.cls-1{fill:#ffcd00;}.cls-2{fill:#fff1b8;}.cls-3{fill:#fff;}</style></defs><title>logo</title><g id="Слой_2" data-name="Слой 2"><g id="content"><circle class="cls-1" cx="103" cy="32.65" r="23.41"/><circle class="cls-2" cx="86.81" cy="4.62" r="4.62"/><path d="M0,41.81V15H9.2q4.55,0,6.93,1.83a6.43,6.43,0,0,1,2.38,5.44,5.8,5.8,0,0,1-1,3.32,6.4,6.4,0,0,1-2.91,2.29A5.93,5.93,0,0,1,18,30.05,6.47,6.47,0,0,1,19.16,34a7.15,7.15,0,0,1-2.42,5.81q-2.43,2-6.94,2ZM4.67,26.26H9.24a5.29,5.29,0,0,0,3.4-1,3.38,3.38,0,0,0,1.23-2.79,3.43,3.43,0,0,0-1.13-2.88,5.73,5.73,0,0,0-3.53-.88H4.67Zm0,3.43V38H9.85A5,5,0,0,0,13.28,37a3.79,3.79,0,0,0,1.24-3q0-4.17-4.28-4.26Z"/><path d="M35.32,41.81a6.91,6.91,0,0,1-.52-1.86,7,7,0,0,1-5.24,2.23,7,7,0,0,1-4.9-1.72,5.48,5.48,0,0,1-1.9-4.24,5.67,5.67,0,0,1,2.37-4.9q2.37-1.71,6.78-1.71h2.75V28.31a3.49,3.49,0,0,0-.87-2.48,3.44,3.44,0,0,0-2.64-.93,4,4,0,0,0-2.51.77,2.37,2.37,0,0,0-1,1.95H23.18a5,5,0,0,1,1.09-3.07,7.24,7.24,0,0,1,3-2.24,10.39,10.39,0,0,1,4.18-.81A8.38,8.38,0,0,1,37,23.25a6.28,6.28,0,0,1,2.14,5v9a10.2,10.2,0,0,0,.76,4.3v.31Zm-4.92-3.23a5.1,5.1,0,0,0,2.5-.65,4.31,4.31,0,0,0,1.76-1.73V32.44H32.24a6.6,6.6,0,0,0-3.74.87,2.81,2.81,0,0,0-1.25,2.45,2.62,2.62,0,0,0,.86,2.06A3.32,3.32,0,0,0,30.39,38.58Z"/><path d="M48.6,41.81H44.11V13.48H48.6Z"/><path d="M65.4,41.81a6.89,6.89,0,0,1-.52-1.86,7.54,7.54,0,0,1-10.14.52,5.49,5.49,0,0,1-1.9-4.24,5.67,5.67,0,0,1,2.37-4.9q2.37-1.71,6.78-1.71h2.75V28.31a3.5,3.5,0,0,0-.87-2.48,3.44,3.44,0,0,0-2.64-.93,4,4,0,0,0-2.51.77,2.37,2.37,0,0,0-1,1.95H53.26a5,5,0,0,1,1.09-3.07,7.25,7.25,0,0,1,3-2.24,10.39,10.39,0,0,1,4.18-.81,8.38,8.38,0,0,1,5.59,1.76,6.29,6.29,0,0,1,2.14,5v9A10.2,10.2,0,0,0,70,41.5v.31Zm-4.92-3.23a5.1,5.1,0,0,0,2.5-.65,4.31,4.31,0,0,0,1.76-1.73V32.44H62.32a6.6,6.6,0,0,0-3.74.87,2.81,2.81,0,0,0-1.25,2.45,2.62,2.62,0,0,0,.86,2.06A3.32,3.32,0,0,0,60.47,38.58Z"/><path d="M78.07,21.86l.13,2.31A7.17,7.17,0,0,1,84,21.49q6.23,0,6.34,7.14V41.81H85.87V28.88A4.11,4.11,0,0,0,85,26.07a3.45,3.45,0,0,0-2.68-.91,4.32,4.32,0,0,0-4,2.45v14.2H73.84v-20Z"/><path class="cls-3" d="M103.11,38.6a4.05,4.05,0,0,0,2.78-1,3.34,3.34,0,0,0,1.18-2.42h4.22a6.58,6.58,0,0,1-1.16,3.48,7.63,7.63,0,0,1-3,2.55,8.8,8.8,0,0,1-4,.94,8.51,8.51,0,0,1-6.64-2.71A10.75,10.75,0,0,1,94.07,32v-.46a10.57,10.57,0,0,1,2.43-7.29,8.43,8.43,0,0,1,6.64-2.74,8.2,8.2,0,0,1,5.8,2.07A7.43,7.43,0,0,1,111.3,29h-4.22a4.1,4.1,0,0,0-1.17-2.82,3.77,3.77,0,0,0-2.79-1.11,3.94,3.94,0,0,0-3.36,1.58,8,8,0,0,0-1.2,4.79v.72A8.18,8.18,0,0,0,99.73,37,3.94,3.94,0,0,0,103.11,38.6Z"/><path d="M123.47,42.18a9.27,9.27,0,0,1-6.91-2.68,9.73,9.73,0,0,1-2.65-7.15V31.8a12,12,0,0,1,1.15-5.34,8.77,8.77,0,0,1,3.24-3.66A8.55,8.55,0,0,1,123,21.49a7.83,7.83,0,0,1,6.3,2.6q2.22,2.6,2.22,7.36v1.81h-13a6,6,0,0,0,1.65,3.91,5,5,0,0,0,3.64,1.44,6.07,6.07,0,0,0,5-2.49l2.42,2.31a8.07,8.07,0,0,1-3.2,2.78A10,10,0,0,1,123.47,42.18Zm-.54-17.1a3.77,3.77,0,0,0-3,1.29,6.69,6.69,0,0,0-1.45,3.6H127v-.33a5.45,5.45,0,0,0-1.2-3.4A3.74,3.74,0,0,0,122.93,25.08Z"/><rect class="cls-3" x="95.01" y="45.84" width="15.96" height="3.19"/></g></g></svg>