<svg xmlns="http://www.w3.org/2000/svg" width="15" height="24" viewBox="0 0 15 24"><g fill="#27272E"><path d="M13.917 12.896c-.312-.631-1.184-1.156-2.342-.246-1.564 1.234-4.076 1.234-4.076 1.234s-2.511 0-4.075-1.234c-1.158-.91-2.028-.385-2.342.246-.548 1.101.071 1.632 1.468 2.531 1.193.766 2.833 1.053 3.892 1.158l-.883.885a3353.167 3353.167 0 0 0-3.281 3.281 1.275 1.275 0 0 0 0 1.805l.15.15a1.272 1.272 0 0 0 1.805 0l3.281-3.281c1.244 1.246 2.447 2.447 3.281 3.281.498.5 1.307.5 1.805 0l.15-.15a1.277 1.277 0 0 0 0-1.805L9.47 17.47l-.887-.887c1.061-.109 2.684-.396 3.867-1.156 1.047-.672 1.656-1.141 1.666-1.795v-.012c0-.216-.064-.453-.199-.724z"/><path d="M7.499 12.216a5.567 5.567 0 0 0 5.568-5.568A5.567 5.567 0 0 0 7.506 1.08h-.013a5.569 5.569 0 0 0 .006 11.136zm0-8.307A2.74 2.74 0 1 1 7.5 9.388a2.74 2.74 0 0 1-.001-5.479z"/></g></svg>