<?xml version="1.0" encoding="utf-8"?>
<!-- Generator: Adobe Illustrator 21.0.0, SVG Export Plug-In . SVG Version: 6.00 Build 0)  -->
<svg version="1.1" id="Layer_1" xmlns="http://www.w3.org/2000/svg" xmlns:xlink="http://www.w3.org/1999/xlink" x="0px" y="0px"
	 viewBox="0 0 59.1 59" style="enable-background:new 0 0 59.1 59;" xml:space="preserve">
<style type="text/css">
	.st0{fill:#E5A3BB;}
</style>
<g id="g5146" transform="matrix(1.25,0,0,-1.25,627.53877,620.10117)">
	<path id="path5148" class="st0" d="M-470.5,469.1l4.4-5.4c1.7,2.5,2.7,5.5,2.7,8.8c0,8.5-6.8,15.3-15.2,15.3
		c-8.4,0-15.2-6.9-15.2-15.3s6.8-15.3,15.2-15.3c2.2,0,4.2,0.5,6.1,1.3l-4.4,5.3L-470.5,469.1z M-478.6,496.1
		c12.9,0,23.4-10.6,23.4-23.6c0-5.9-2.1-11.2-5.6-15.3l6-7.4h-10.6l-1.8,2.2c-3.4-1.9-7.3-3-11.4-3c-12.9,0-23.4,10.6-23.4,23.6
		S-491.5,496.1-478.6,496.1"/>
</g>
</svg>
