<?xml version="1.0" encoding="utf-8"?>
<!-- Generator: Adobe Illustrator 16.0.0, SVG Export Plug-In . SVG Version: 6.00 Build 0)  -->
<!DOCTYPE svg PUBLIC "-//W3C//DTD SVG 1.1//EN" "http://www.w3.org/Graphics/SVG/1.1/DTD/svg11.dtd">
<svg version="1.1" id="Layer_1" xmlns="http://www.w3.org/2000/svg" xmlns:xlink="http://www.w3.org/1999/xlink" x="0px" y="0px"
	 width="5.91px" height="9.844px" viewBox="0 0 5.91 9.844" enable-background="new 0 0 5.91 9.844" xml:space="preserve">
<path id="pmu-next.svg" fill="#27272E" d="M5.66,4.321L1.45,0.229c-0.339-0.323-0.872-0.323-1.21,0
	C-0.083,0.542-0.091,1.057,0.222,1.38C0.228,1.386,0.234,1.392,0.24,1.398L3.85,4.906L0.24,8.414
	c-0.323,0.312-0.331,0.828-0.018,1.15C0.228,9.571,0.234,9.577,0.24,9.583c0.338,0.323,0.871,0.323,1.21,0l4.21-4.092l0,0
	C5.74,5.413,5.805,5.32,5.85,5.217C5.89,5.118,5.91,5.013,5.91,4.906C5.911,4.685,5.82,4.473,5.66,4.321z"/>
</svg>