<?xml version="1.0" encoding="utf-8"?>
<!-- Generator: Adobe Illustrator 16.0.0, SVG Export Plug-In . SVG Version: 6.00 Build 0)  -->
<!DOCTYPE svg PUBLIC "-//W3C//DTD SVG 1.1//EN" "http://www.w3.org/Graphics/SVG/1.1/DTD/svg11.dtd">
<svg version="1.1" id="Layer_1" xmlns="http://www.w3.org/2000/svg" xmlns:xlink="http://www.w3.org/1999/xlink" x="0px" y="0px"
	 width="5.938px" height="9.844px" viewBox="0 0 5.938 9.844" enable-background="new 0 0 5.938 9.844" xml:space="preserve">
<path id="pmu-prev.svg" fill="#27272E" d="M0.249,4.321l4.215-4.092c0.336-0.32,0.864-0.32,1.2,0
	C5.987,0.54,5.997,1.053,5.687,1.376C5.679,1.383,5.671,1.391,5.664,1.398L2.055,4.906l3.613,3.508
	C5.99,8.725,6.001,9.238,5.691,9.561C5.683,9.568,5.675,9.576,5.668,9.583c-0.336,0.32-0.864,0.32-1.2,0L0.255,5.491l0,0
	C0.176,5.413,0.113,5.319,0.068,5.217C0.026,5.119,0.002,5.013,0,4.906C0,4.685,0.09,4.474,0.249,4.321z"/>
</svg>