<?xml version="1.0" encoding="iso-8859-1"?>
<!-- Generator: Adobe Illustrator 16.0.0, SVG Export Plug-In . SVG Version: 6.00 Build 0)  -->
<!DOCTYPE svg PUBLIC "-//W3C//DTD SVG 1.1//EN" "http://www.w3.org/Graphics/SVG/1.1/DTD/svg11.dtd">
<svg version="1.1" id="Layer_1" xmlns="http://www.w3.org/2000/svg" xmlns:xlink="http://www.w3.org/1999/xlink" x="0px" y="0px"
	 width="61.143px" height="15.432px" viewBox="0 0 61.143 15.432" style="enable-background:new 0 0 61.143 15.432;"
	 xml:space="preserve">
<g>
	<path style="fill:#E5A3BB;" d="M53.426,0c-1.845,0-3.522,0.629-4.864,1.719c1.007,0.965,1.804,2.181,2.181,3.564h-0.629
		c-0.42-1.216-1.09-2.306-2.014-3.187c-0.922,0.881-1.593,1.971-2.012,3.187h-0.63c0.419-1.384,1.175-2.6,2.181-3.564
		C46.297,0.629,44.663,0,42.817,0c-4.236,0-7.674,3.48-7.674,7.716c0,4.235,3.438,7.716,7.716,7.716
		c1.845,0,3.522-0.671,4.822-1.719c-1.007-0.964-1.761-2.181-2.181-3.564h0.629c0.42,1.216,1.091,2.307,2.014,3.187
		c0.922-0.88,1.635-1.971,2.012-3.187h0.63c-0.419,1.384-1.175,2.6-2.181,3.564c1.342,1.09,3.02,1.719,4.864,1.719
		c4.235,0,7.675-3.48,7.675-7.716C61.143,3.48,57.704,0,53.426,0z M38.624,9.52l0.461-2.433l-1.09,2.433h-0.713l-0.21-2.474
		L36.569,9.52h-0.756l0.672-3.439h1.216l0.167,2.097l0.924-2.097h1.299L39.42,9.52H38.624z M42.02,9.562h-0.713l-0.084-0.168
		c-0.125,0.084-0.252,0.168-0.629,0.168s-0.881-0.294-0.797-0.881c0.21-1.216,1.594-1.006,1.803-1.006
		c0.127-0.419-0.209-0.377-0.461-0.377s-0.755,0.084-0.965,0.084l0.127-0.629c0.502-0.083,0.754-0.083,0.922-0.042
		c1.301,0,1.174,0.923,1.09,1.3L42.02,9.562z M44.536,8.681c-0.125,0.839-1.048,0.797-1.258,0.797c-0.293,0-0.545,0-0.922-0.084
		l0.125-0.587c0.378,0.125,0.881,0.083,1.007,0.083c0.251,0,0.294-0.335,0.084-0.419c-0.168-0.084-0.335-0.21-0.63-0.335
		c-0.167-0.084-0.377-0.294-0.251-0.839c0.126-0.671,1.048-0.671,1.175-0.671c0.084,0,0.377,0,0.754,0.125l-0.168,0.587
		c-0.209-0.042-0.586-0.042-0.713-0.084c-0.293,0.084-0.167,0.335,0,0.419c0.168,0.042,0.378,0.209,0.546,0.293
		C44.411,8.094,44.62,8.261,44.536,8.681z M45.836,9.394C45.668,9.52,45.458,9.52,45.249,9.52c-0.168,0-0.754-0.126-0.629-0.881
		l0.588-2.684h0.754l-0.167,0.754h0.419l-0.125,0.587H45.71L45.5,8.429c-0.042,0.209,0,0.419,0.42,0.335L45.836,9.394z
		 M48.394,9.394c-0.21,0.084-0.671,0.126-1.007,0.126c-1.342,0-1.342-1.258-1.299-1.426c0-0.168,0.167-1.426,1.426-1.426
		c1.342,0,1.132,1.132,1.048,1.593h-1.636c-0.084,0.629,0.42,0.629,0.713,0.629c0.336,0,0.755-0.042,0.881-0.083L48.394,9.394z
		 M49.61,8.261l-0.251,1.3h-0.797V9.52l0.545-2.81h0.671l0.084,0.294c0.126-0.126,0.336-0.294,0.755-0.294l-0.21,0.755
		C50.239,7.464,49.862,7.422,49.61,8.261z M52.545,8.639l0.21,0.713c-0.251,0.126-0.503,0.168-0.923,0.168
		c-0.797,0-1.678-0.713-1.3-2.181c0.294-1.048,1.216-1.468,1.762-1.426c0.629,0.042,0.88,0.251,1.048,0.461l-0.503,0.503
		c-0.21-0.126-0.335-0.126-0.587-0.126s-0.839,0.252-0.923,0.923C51.204,8.513,51.749,8.89,52.545,8.639z M55.397,8.01l-0.293,1.552
		h-0.713l-0.084-0.168c-0.126,0.084-0.252,0.168-0.629,0.168s-0.881-0.294-0.797-0.881c0.209-1.216,1.594-1.006,1.803-1.006
		c0.084-0.419-0.209-0.377-0.461-0.377s-0.755,0.084-0.965,0.084l0.126-0.629c0.503-0.083,0.797-0.083,0.923-0.042
		C55.607,6.709,55.481,7.632,55.397,8.01z M56.53,8.219l-0.252,1.3h-0.797l0.545-2.852h0.672l0.084,0.293
		c0.125-0.126,0.335-0.293,0.754-0.293l-0.209,0.754C57.117,7.422,56.782,7.381,56.53,8.219z M58.92,9.52l-0.084-0.21
		c-0.168,0.084-0.42,0.21-0.672,0.21c-0.545,0-1.048-0.755-0.797-1.636c0.378-1.3,1.049-1.216,1.469-1.216
		c0.335,0,0.419,0.209,0.587,0.335l0.21-1.09h0.797L59.758,9.52H58.92z"/>
	<path style="fill:#E5A3BB;" d="M8.579,2.848l-2.428,6.2L5.893,8.112C5.415,6.984,4.056,5.364,2.46,4.344l2.22,7.581l2.621-0.005
		l3.902-9.073L8.579,2.848z"/>
	<path style="fill:#E5A3BB;" d="M5.788,7.516L4.953,3.499C4.809,2.944,4.391,2.78,3.874,2.76H0.032L0,2.942
		C2.989,3.667,4.967,5.414,5.788,7.516z"/>
	<polygon style="fill:#E5A3BB;" points="12.206,2.838 10.656,11.929 13.133,11.929 14.684,2.838 	"/>
	<path style="fill:#E5A3BB;" d="M26.563,2.848c-0.596,0-1.037,0.162-1.298,0.754l-3.679,8.332h2.602c0,0,0.424-1.121,0.521-1.366
		c0.284,0,2.813,0.004,3.173,0.004c0.074,0.317,0.303,1.362,0.303,1.362h2.297l-2.004-9.086H26.563z M25.421,8.708
		c0.204-0.522,0.987-2.541,0.987-2.541c-0.014,0.026,0.201-0.524,0.33-0.868l0.166,0.784c0,0,0.476,2.171,0.574,2.625H25.421z"/>
	<path style="fill:#E5A3BB;" d="M19.677,6.491c-0.867-0.422-1.397-0.703-1.393-1.128c0-0.377,0.451-0.782,1.421-0.782
		c0.811-0.013,1.398,0.165,1.854,0.348l0.224,0.105l0.335-1.971c-0.491-0.184-1.26-0.381-2.22-0.381c-2.449,0-4.174,1.233-4.188,3
		c-0.016,1.306,1.229,2.035,2.17,2.47c0.966,0.446,1.289,0.73,1.285,1.127c-0.008,0.608-0.771,0.888-1.481,0.888
		c-0.993,0-1.52-0.137-2.333-0.476l-0.319-0.145l-0.349,2.034c0.58,0.254,1.649,0.473,2.76,0.484c2.605,0,4.297-1.218,4.315-3.106
		C21.77,7.926,21.11,7.137,19.677,6.491z"/>
</g>
</svg>
