<svg xmlns="http://www.w3.org/2000/svg" width="26" height="16" viewBox="0 0 26 16"><path fill="#27272E" d="M24.149 14.941l-3.277.045s-.704.14-1.631-.496c-1.226-.842-2.381-3.029-3.282-2.744-.913.29-.885 2.258-.885 2.258s.007.421-.202.645c-.226.244-.669.293-.669.293h-1.467s-3.237.194-6.087-2.773C3.542 8.932.796 2.51.796 2.51s-.158-.422.015-.625c.193-.229.719-.244.719-.244l3.507-.022s.33.056.567.229c.195.143.304.41.304.41s.567 1.434 1.317 2.73C8.69 7.518 9.372 8.072 9.869 7.8c.725-.395.508-3.577.508-3.577s.013-1.155-.365-1.67c-.293-.398-.845-.514-1.089-.547-.198-.026.126-.485.546-.69.631-.31 1.745-.326 3.062-.313 1.026.011 1.321.075 1.723.171 1.208.293.798 1.42.798 4.123 0 .866-.156 2.084.469 2.488.269.174.926.025 2.569-2.765.778-1.322 1.363-2.877 1.363-2.877s.127-.277.326-.396c.203-.121.476-.084.476-.084l3.69-.023s1.109-.132 1.288.368c.188.526-.414 1.753-1.921 3.762-2.475 3.299-2.751 2.99-.696 4.897 1.963 1.822 2.37 2.709 2.437 2.819.811 1.349-.904 1.455-.904 1.455z"/></svg>