<?xml version="1.0"?>
<svg xmlns="http://www.w3.org/2000/svg" height="512px" viewBox="0 0 512 512" width="512px"><path d="m512 138.160156c0-17.128906-5.460938-33.382812-15.789062-47.003906-7.820313-10.3125-18.222657-18.582031-29.945313-23.933594-5.246094-37.914062-37.910156-67.222656-77.265625-67.222656-41.304688 0-75.191406 32.246094-77.816406 72.859375-4.988282-.5625-10.050782-.859375-15.183594-.859375h-80c-5.132812 0-10.195312.296875-15.183594.859375-2.625-40.613281-36.511718-72.859375-77.816406-72.859375-39.355469 0-72.023438 29.308594-77.265625 67.222656-11.722656 5.351563-22.125 13.621094-29.945313 23.933594-10.328124 13.621094-15.789062 29.875-15.789062 47.003906 0 20.554688 8.25 40.273438 22.519531 54.75-2.972656 8.363282-4.519531 17.234375-4.519531 26.160156 0 37.84375 27.144531 69.460938 63 76.46875v41.460938c0 96.496094 78.503906 175 175 175s175-78.503906 175-175v-41.460938c35.855469-7.007812 63-38.625 63-76.46875 0-8.925781-1.546875-17.796874-4.519531-26.160156 14.269531-14.476562 22.519531-34.195312 22.519531-54.75zm-431 126.429688c-19.140625-6.304688-33-24.320313-33-45.519532 0-8.035156 2.027344-15.980468 5.867188-22.976562l6.320312-11.523438-10.589844-7.78125c-12.453125-9.148437-19.597656-23.226562-19.597656-38.628906 0-21.039062 14.09375-39.929687 34.277344-45.929687l10.710937-3.183594.011719-11.175781c.035156-26.394532 21.566406-47.871094 48-47.871094 26.46875 0 48 21.5 48 47.929688 0 .601562-.015625 1.203124-.039062 1.804687-52.359376 18.585937-89.960938 68.613281-89.960938 127.265625zm320 72.410156c0 79.953125-65.046875 145-145 145s-145-65.046875-145-145v-130c0-57.898438 47.101562-105 105-105h80c57.898438 0 105 47.101562 105 105zm61.402344-160.207031-10.589844 7.777343 6.320312 11.523438c3.835938 7 5.867188 14.941406 5.867188 22.976562 0 21.199219-13.859375 39.214844-33 45.519532v-57.589844c0-58.644531-37.59375-108.667969-89.941406-127.257812-.023438-.605469-.058594-1.210938-.058594-1.8125 0-26.429688 21.53125-47.929688 48-47.929688 26.433594 0 47.964844 21.476562 47.996094 47.871094l.015625 11.175781 10.710937 3.183594c20.179688 6 34.277344 24.886719 34.277344 45.929687 0 15.402344-7.144531 29.480469-19.597656 38.632813zm0 0" fill="#FFFFFF"/><path d="m206.296875 396.320312-21.210937 21.214844c19.550781 19.554688 45.226562 29.328125 70.914062 29.328125 25.679688 0 51.367188-9.777343 70.914062-29.328125l-21.210937-21.210937c-27.40625 27.40625-72 27.402343-99.40625-.003907zm0 0" fill="#FFFFFF"/><path d="m201 327c0 30.328125 24.671875 55 55 55s55-24.671875 55-55-24.671875-55-55-55-55 24.671875-55 55zm55-25c13.785156 0 25 11.214844 25 25s-11.214844 25-25 25-25-11.214844-25-25 11.214844-25 25-25zm0 0" fill="#FFFFFF"/><path d="m231 209c0-24.8125-20.1875-45-45-45s-45 20.1875-45 45 20.1875 45 45 45 45-20.1875 45-45zm-60 0c0-8.269531 6.730469-15 15-15s15 6.730469 15 15-6.730469 15-15 15-15-6.730469-15-15zm0 0" fill="#FFFFFF"/><path d="m326 164c-24.8125 0-45 20.1875-45 45s20.1875 45 45 45 45-20.1875 45-45-20.1875-45-45-45zm0 60c-8.269531 0-15-6.730469-15-15s6.730469-15 15-15 15 6.730469 15 15-6.730469 15-15 15zm0 0" fill="#FFFFFF"/></svg>
